<svg id="Camada_1" data-name="Camada 1" xmlns="http://www.w3.org/2000/svg" viewBox="0 0 187.36 70.33"><defs><style>.cls-1{fill:#fff;}</style></defs><title>logo</title><path class="cls-1" d="M22.24,31.44a2,2,0,0,1,2-1.6H38a2.13,2.13,0,0,1,2,1.6L46.46,60a2.06,2.06,0,0,1-2,2.54H37.25a2.08,2.08,0,0,1-2-1.56l-.15-.64a2.07,2.07,0,0,0-2-1.55H29a2.06,2.06,0,0,0-2,1.65l-.09.44a2,2,0,0,1-2,1.66H18A2,2,0,0,1,16,60Zm8.34,7.27-1.46,9a2.07,2.07,0,1,0,4.09,0l-1.41-9Z" transform="translate(-6.32 -29.84)"/><path class="cls-1" d="M49.61,31.74a1.93,1.93,0,0,1,1.9-1.9H59a1.93,1.93,0,0,1,1.9,1.9v28.8a1.94,1.94,0,0,1-1.9,2h-7.5a2,2,0,0,1-1.9-2Z" transform="translate(-6.32 -29.84)"/><path class="cls-1" d="M66.62,31.88a2.06,2.06,0,0,1,2-2h7.89a2.06,2.06,0,0,1,1.76,1l5.75,8.63a1,1,0,0,0,.83.44,1,1,0,0,0,1-1v-7a2.06,2.06,0,0,1,2-2h7.21a2.06,2.06,0,0,1,2,2V60.44a2.07,2.07,0,0,1-2,2.05h-7.9a2,2,0,0,1-1.8-1.07l-5.7-9.22a.91.91,0,0,0-.83-.48,1,1,0,0,0-1,1v7.7a2.07,2.07,0,0,1-2.05,2.05H68.67a2.07,2.07,0,0,1-2-2.05Z" transform="translate(-6.32 -29.84)"/><path class="cls-1" d="M104.93,62.49a2,2,0,0,1-2-2V31.83a2,2,0,0,1,2-2h11.79c11.16,0,15.84,4.82,15.84,15.93,0,10.77-4.09,16.72-15.35,16.72Zm15.3-22c-.58-1-1.9-1.46-4-1.46a2,2,0,0,0-2,2V51.28a2,2,0,0,0,2,2c4.63,0,4.93-3,4.93-6.92C121.16,43.43,120.86,41.48,120.23,40.51Z" transform="translate(-6.32 -29.84)"/><path class="cls-1" d="M141.36,31.44a2,2,0,0,1,2-1.6h13.79a2.13,2.13,0,0,1,2,1.6L165.58,60a2.06,2.06,0,0,1-2,2.54h-7.21a2.08,2.08,0,0,1-2-1.56l-.15-.64a2.07,2.07,0,0,0-2-1.55h-4.14a2,2,0,0,0-2,1.65l-.1.44a2,2,0,0,1-2,1.66h-6.87a2,2,0,0,1-2-2.49Zm8.33,7.27-1.46,9a2.07,2.07,0,1,0,4.09,0l-1.41-9Z" transform="translate(-6.32 -29.84)"/><path class="cls-1" d="M31.16,69.18a2.32,2.32,0,0,1,2.34-2.34H53.24a2.3,2.3,0,0,1,2.29,2.34v4.58a2.28,2.28,0,0,1-2.29,2.29H51.48a2.31,2.31,0,0,0-2.29,2.34V97.2a2.29,2.29,0,0,1-2.29,2.3H40.18a2.29,2.29,0,0,1-2.29-2.3V78.39a2.31,2.31,0,0,0-2.29-2.34H33.5a2.3,2.3,0,0,1-2.34-2.29Z" transform="translate(-6.32 -29.84)"/><path class="cls-1" d="M60.26,68.21a1.41,1.41,0,0,1,1.41-1.37H83.36a1.41,1.41,0,0,1,1.37,1.37v6.24a1.41,1.41,0,0,1-1.37,1.41H73a1.4,1.4,0,0,0-1.41,1.36A1.42,1.42,0,0,0,73,78.64h7.46A1.39,1.39,0,0,1,81.8,80v6.14a1.41,1.41,0,0,1-1.36,1.42H73a1.4,1.4,0,0,0-1.41,1.36v.15A1.41,1.41,0,0,0,73,90.48H83.36a1.4,1.4,0,0,1,1.37,1.36v6.24a1.42,1.42,0,0,1-1.37,1.42H61.67a1.42,1.42,0,0,1-1.41-1.42Z" transform="translate(-6.32 -29.84)"/><path class="cls-1" d="M89.8,68.89a2.06,2.06,0,0,1,2-2H105a2,2,0,0,1,2,1.61l1,5.22a1,1,0,0,0,1.07.82,1,1,0,0,0,1.07-.87l.83-5.07a2.07,2.07,0,0,1,2-1.71h13.54a2.07,2.07,0,0,1,2,2V97.45a2.07,2.07,0,0,1-2,2h-7.21a2.07,2.07,0,0,1-2-2V82.68h-.53l-2.54,14.77a2.07,2.07,0,0,1-2,1.7h-6a2.07,2.07,0,0,1-2-1.7l-2.49-14.77h-.54V97.45a2.06,2.06,0,0,1-2,2H91.84a2.06,2.06,0,0,1-2-2Z" transform="translate(-6.32 -29.84)"/><path class="cls-1" d="M144.16,94.09V98a1.52,1.52,0,0,1-1.51,1.52h-8.29A1.52,1.52,0,0,1,132.85,98V68.35a1.52,1.52,0,0,1,1.51-1.51h11.31c9.55,0,14.81,2.39,14.81,12.72s-5.21,13-14.81,13A1.52,1.52,0,0,0,144.16,94.09Zm0-10.43h1c2.88,0,3.9-1.27,3.9-4.1s-1-3.8-3.9-3.8h-1Z" transform="translate(-6.32 -29.84)"/><path class="cls-1" d="M11.2,76.94H7a.7.7,0,0,0-.71.71V87.79A.7.7,0,0,0,7,88.5h4.34c4,0,5.44-2.11,5.44-5.92S15.15,76.94,11.2,76.94ZM11,85.24a.7.7,0,0,1-.71-.71V80.91A.7.7,0,0,1,11,80.2c.74,0,1.21.17,1.41.52a4.2,4.2,0,0,1,.33,2.07C12.77,84.19,12.67,85.24,11,85.24Z" transform="translate(-6.32 -29.84)"/><path class="cls-1" d="M26.08,77.51a.75.75,0,0,0-.72-.57H20.48a.72.72,0,0,0-.71.57L17.54,87.62a.73.73,0,0,0,.71.88h2.43a.72.72,0,0,0,.71-.59l0-.15a.72.72,0,0,1,.72-.59h1.47a.74.74,0,0,1,.7.55l.06.23a.72.72,0,0,0,.7.55h2.56a.73.73,0,0,0,.7-.9Zm-3.15,6.61a.74.74,0,0,1-.73-.85l.52-3.19h.43l.5,3.19A.73.73,0,0,1,22.93,84.12Z" transform="translate(-6.32 -29.84)"/><path class="cls-1" d="M21.09,76h1.85a.38.38,0,0,0,.28-.12l1.63-1.92a.31.31,0,0,0-.28-.51H21.75a.37.37,0,0,0-.33.22l-.66,1.93A.31.31,0,0,0,21.09,76Z" transform="translate(-6.32 -29.84)"/><path class="cls-1" d="M178,100.16c-11.66,0-15.8-6-15.8-17s4.05-17,15.75-17,15.76,5.91,15.76,17S189.63,100.16,178,100.16Zm-3.41-11c.55,1.22,1.68,1.85,3.41,1.85s2.82-.58,3.36-1.8a16.3,16.3,0,0,0,.79-6.06,16.18,16.18,0,0,0-.79-6c-.49-1.17-1.63-1.76-3.36-1.76s-2.86.59-3.41,1.81a15.93,15.93,0,0,0-.84,6A15.66,15.66,0,0,0,174.56,89.13Z" transform="translate(-6.32 -29.84)"/></svg>