<svg id="Camada_1" data-name="Camada 1" xmlns="http://www.w3.org/2000/svg" viewBox="0 0 49.25 49.25"><defs><style>.cls-1{fill:#db8f1b;}</style></defs><title>playLogo</title><polygon class="cls-1" points="33.45 21.74 33.45 16.04 33.45 15.98 27.68 15.98 27.68 10.21 16.16 10.21 16.16 15.98 16.16 15.98 16.16 21.71 16.16 21.76 16.16 27.49 16.16 27.54 16.16 33.27 16.16 39.03 27.68 39.03 27.68 33.27 33.45 33.27 33.45 27.5 39.21 27.5 39.21 21.77 39.21 21.74 33.45 21.74"/><path class="cls-1" d="M25,49.62A24.62,24.62,0,1,1,49.62,25,24.64,24.64,0,0,1,25,49.62Zm0-46.1A21.48,21.48,0,1,0,46.48,25,21.5,21.5,0,0,0,25,3.52Z" transform="translate(-0.38 -0.38)"/></svg>